<svg width="44" height="45" viewBox="0 0 44 45" fill="none" xmlns="http://www.w3.org/2000/svg">
<mask id="path-1-inside-1_282_1702" fill="white">
<path d="M44 22.4629C44 34.6132 34.1503 44.4629 22 44.4629C9.84974 44.4629 0 34.6132 0 22.4629C0 10.3126 9.84974 0.462891 22 0.462891C34.1503 0.462891 44 10.3126 44 22.4629Z"/>
</mask>
<path d="M44 22.4629C44 34.6132 34.1503 44.4629 22 44.4629C9.84974 44.4629 0 34.6132 0 22.4629C0 10.3126 9.84974 0.462891 22 0.462891C34.1503 0.462891 44 10.3126 44 22.4629Z" fill="white"/>
<path d="M42 22.4629C42 33.5086 33.0457 42.4629 22 42.4629V46.4629C35.2548 46.4629 46 35.7177 46 22.4629H42ZM22 42.4629C10.9543 42.4629 2 33.5086 2 22.4629H-2C-2 35.7177 8.74517 46.4629 22 46.4629V42.4629ZM2 22.4629C2 11.4172 10.9543 2.46289 22 2.46289V-1.53711C8.74517 -1.53711 -2 9.20806 -2 22.4629H2ZM22 2.46289C33.0457 2.46289 42 11.4172 42 22.4629H46C46 9.20806 35.2548 -1.53711 22 -1.53711V2.46289Z" fill="#333333" mask="url(#path-1-inside-1_282_1702)"/>
<path d="M31.9358 32.2416L18.0088 30.4363C15.8019 30.1502 14.5813 32.9163 16.2801 34.3537C16.7403 34.7432 17.3385 34.9299 17.9386 34.8713L31.9157 33.5077C32.6707 33.434 32.688 32.3391 31.9358 32.2416Z" fill="#D9D9D9"/>
<path d="M19.5 7.46289C18.8096 7.46289 18.25 7.89402 18.25 8.42585L17 32.4999C17 33.0318 18.1193 33.4629 19.5 33.4629C20.8807 33.4629 22 33.0318 22 32.4999L20.75 8.42585C20.75 7.89402 20.1904 7.46289 19.5 7.46289Z" fill="#333333" stroke="#333333"/>
<path d="M34 17.1666L19 9.46289V25.4629L34 17.1666Z" fill="#FFD600" stroke="#333333" stroke-width="2" stroke-linejoin="round"/>
</svg>
