<svg width="48" height="48" viewBox="0 0 48 48" fill="none" xmlns="http://www.w3.org/2000/svg">
<circle cx="24" cy="24" r="20.5" fill="white" stroke="#242424" stroke-width="3"/>
<path d="M18.7909 38.0959C18.286 38.0959 17.8513 37.9936 17.487 37.7891C17.1247 37.5824 16.8456 37.2905 16.6496 36.9134C16.4536 36.5341 16.3556 36.0856 16.3556 35.5678C16.3556 35.0629 16.4536 34.6197 16.6496 34.2383C16.8456 33.8569 17.1215 33.5597 17.4774 33.3466C17.8353 33.1335 18.2551 33.027 18.7366 33.027C19.0605 33.027 19.362 33.0792 19.6411 33.1836C19.9223 33.2859 20.1674 33.4403 20.3762 33.647C20.5871 33.8537 20.7512 34.1136 20.8683 34.4268C20.9855 34.7379 21.0441 35.1023 21.0441 35.5199V35.8938H16.8989V35.0501H19.7625C19.7625 34.854 19.7199 34.6804 19.6347 34.5291C19.5495 34.3778 19.4312 34.2596 19.2799 34.1744C19.1308 34.087 18.9571 34.0433 18.759 34.0433C18.5523 34.0433 18.3691 34.0913 18.2093 34.1871C18.0516 34.2809 17.928 34.4077 17.8385 34.5675C17.749 34.7251 17.7032 34.9009 17.7011 35.0948V35.897C17.7011 36.1399 17.7458 36.3498 17.8353 36.5266C17.9269 36.7035 18.0558 36.8398 18.222 36.9357C18.3882 37.0316 18.5853 37.0795 18.8133 37.0795C18.9646 37.0795 19.1031 37.0582 19.2288 37.0156C19.3545 36.973 19.4621 36.9091 19.5516 36.8239C19.6411 36.7386 19.7093 36.6342 19.7561 36.5107L21.0154 36.5938C20.9514 36.8963 20.8204 37.1605 20.6223 37.3864C20.4262 37.6101 20.1727 37.7848 19.8616 37.9105C19.5526 38.0341 19.1958 38.0959 18.7909 38.0959ZM22.9341 35.1619V38H21.5726V33.0909H22.8702V33.957H22.9277C23.0364 33.6715 23.2186 33.4457 23.4743 33.2795C23.7299 33.1112 24.04 33.027 24.4043 33.027C24.7452 33.027 25.0424 33.1016 25.296 33.2507C25.5495 33.3999 25.7466 33.6129 25.8873 33.8899C26.0279 34.1648 26.0982 34.4929 26.0982 34.8743V38H24.7367V35.1172C24.7388 34.8168 24.6621 34.5824 24.5066 34.4141C24.351 34.2436 24.1369 34.1584 23.8642 34.1584C23.6809 34.1584 23.519 34.1978 23.3784 34.2766C23.2399 34.3555 23.1312 34.4705 23.0524 34.6218C22.9757 34.771 22.9363 34.951 22.9341 35.1619ZM28.6202 38.0799C28.2473 38.0799 27.9096 37.984 27.6071 37.7923C27.3066 37.5984 27.068 37.3139 26.8912 36.9389C26.7164 36.5618 26.6291 36.0994 26.6291 35.5518C26.6291 34.9893 26.7196 34.5217 26.9007 34.1488C27.0818 33.7738 27.3226 33.4936 27.623 33.3082C27.9256 33.1207 28.2569 33.027 28.617 33.027C28.8919 33.027 29.1209 33.0739 29.3042 33.1676C29.4895 33.2592 29.6387 33.3743 29.7516 33.5128C29.8667 33.6491 29.954 33.7834 30.0137 33.9155H30.0552V31.4545H31.4135V38H30.0712V37.2138H30.0137C29.9497 37.3501 29.8592 37.4854 29.742 37.6197C29.6269 37.7518 29.4767 37.8615 29.2914 37.9489C29.1081 38.0362 28.8844 38.0799 28.6202 38.0799ZM29.0517 36.9964C29.2711 36.9964 29.4565 36.9368 29.6078 36.8175C29.7612 36.696 29.8784 36.5266 29.9593 36.3093C30.0424 36.092 30.084 35.8374 30.084 35.5455C30.084 35.2536 30.0435 35 29.9625 34.7848C29.8816 34.5696 29.7644 34.4034 29.611 34.2862C29.4576 34.169 29.2711 34.1104 29.0517 34.1104C28.8279 34.1104 28.6394 34.1712 28.486 34.2926C28.3326 34.4141 28.2164 34.5824 28.1376 34.7976C28.0588 35.0128 28.0193 35.2621 28.0193 35.5455C28.0193 35.831 28.0588 36.0835 28.1376 36.3029C28.2186 36.5202 28.3347 36.6907 28.486 36.8143C28.6394 36.9357 28.8279 36.9964 29.0517 36.9964Z" fill="black"/>
<path d="M20 23.7405V15.6357C20 13.2522 20 12.0605 20.4589 11.3065C20.9664 10.4726 21.832 9.92135 22.8022 9.8141C23.6795 9.71711 24.7595 10.2211 26.9193 11.229L26.9193 11.229C29.5848 12.4729 30.9175 13.0948 31.4134 13.9395C31.9609 14.8719 31.9915 16.02 31.4945 16.9803C31.0443 17.8502 29.7466 18.5423 27.1513 19.9265L20 23.7405Z" fill="#FFD600"/>
<path d="M20 28.6494V15.7906C20 13.2681 20 12.0068 20.5117 11.2227C21.0073 10.4633 21.8062 9.95445 22.704 9.82652C23.6309 9.69443 24.7738 10.2278 27.0597 11.2945V11.2945C29.7941 12.5706 31.1613 13.2086 31.6569 14.1059C32.1357 14.9727 32.1787 16.0143 31.773 16.9176C31.3531 17.8527 30.0431 18.6012 27.4231 20.0984L21.0494 23.7405" stroke="#242424" stroke-width="3.1481" stroke-linecap="round"/>
<path d="M3.40024 42.1989L5 35L11 41L4.72755 43.3522C3.98418 43.6309 3.22802 42.9739 3.40024 42.1989Z" fill="#242424"/>
</svg>
