<svg width="48" height="48" viewBox="0 0 48 48" fill="none" xmlns="http://www.w3.org/2000/svg">
<g clip-path="url(#clip0_251_2757)">
<g clip-path="url(#clip1_251_2757)">
<path d="M12.4789 17.0354C12.4789 10.2034 18.0173 4.66504 24.8492 4.66504C31.6812 4.66504 37.2196 10.2034 37.2196 17.0354V28.9135C37.2196 32.3344 35.4709 35.518 32.5838 37.353L26.4585 41.2463C25.4765 41.8704 24.222 41.8704 23.24 41.2463L17.1147 37.353C14.2276 35.518 12.4789 32.3344 12.4789 28.9135V17.0354Z" fill="white" stroke="black" stroke-width="2"/>
<circle cx="24.9789" cy="17.165" r="9.5" fill="#FFD600"/>
</g>
<path d="M20.6812 29.4403L19.5732 29.5084C19.5543 29.4137 19.5135 29.3285 19.451 29.2528C19.3885 29.1751 19.3062 29.1135 19.2039 29.0681C19.1035 29.0207 18.9832 28.9971 18.8431 28.9971C18.6556 28.9971 18.4974 29.0368 18.3687 29.1164C18.2399 29.194 18.1755 29.2982 18.1755 29.4289C18.1755 29.5331 18.2171 29.6211 18.3005 29.6931C18.3838 29.7651 18.5268 29.8228 18.7295 29.8664L19.5192 30.0255C19.9435 30.1126 20.2598 30.2528 20.4681 30.4459C20.6764 30.6391 20.7806 30.8929 20.7806 31.2073C20.7806 31.4933 20.6963 31.7442 20.5278 31.9601C20.3611 32.176 20.1319 32.3446 19.8403 32.4658C19.5505 32.5851 19.2162 32.6448 18.8374 32.6448C18.2598 32.6448 17.7995 32.5245 17.4567 32.284C17.1158 32.0416 16.916 31.712 16.8573 31.2954L18.0476 31.2329C18.0836 31.409 18.1707 31.5435 18.309 31.6363C18.4473 31.7272 18.6243 31.7726 18.8403 31.7726C19.0524 31.7726 19.2228 31.7319 19.3516 31.6505C19.4823 31.5671 19.5486 31.4601 19.5505 31.3295C19.5486 31.2196 19.5022 31.1296 19.4113 31.0596C19.3204 30.9876 19.1802 30.9327 18.9908 30.8948L18.2351 30.7442C17.809 30.659 17.4918 30.5113 17.2834 30.301C17.077 30.0908 16.9738 29.8228 16.9738 29.4971C16.9738 29.2168 17.0495 28.9753 17.201 28.7726C17.3545 28.57 17.5694 28.4137 17.8459 28.3039C18.1243 28.194 18.4501 28.1391 18.8232 28.1391C19.3743 28.1391 19.8081 28.2556 20.1243 28.4885C20.4425 28.7215 20.6281 29.0387 20.6812 29.4403ZM23.5437 28.1959V29.105H20.9158V28.1959H23.5437ZM21.5124 27.1505H22.7227V31.2187C22.7227 31.3304 22.7397 31.4175 22.7738 31.48C22.8079 31.5406 22.8552 31.5832 22.9158 31.6079C22.9783 31.6325 23.0503 31.6448 23.1318 31.6448C23.1886 31.6448 23.2454 31.6401 23.3022 31.6306C23.359 31.6192 23.4026 31.6107 23.4329 31.605L23.6232 32.5056C23.5626 32.5245 23.4774 32.5463 23.3676 32.5709C23.2577 32.5974 23.1242 32.6135 22.967 32.6192C22.6753 32.6306 22.4196 32.5918 22.1999 32.5028C21.9821 32.4137 21.8126 32.2755 21.6914 32.088C21.5702 31.9005 21.5105 31.6637 21.5124 31.3778V27.1505ZM25.9368 32.6448C25.4955 32.6448 25.1138 32.551 24.7919 32.3635C24.4718 32.1742 24.2246 31.9109 24.0504 31.5738C23.8762 31.2348 23.789 30.8418 23.789 30.3948C23.789 29.944 23.8762 29.5501 24.0504 29.213C24.2246 28.874 24.4718 28.6107 24.7919 28.4232C25.1138 28.2338 25.4955 28.1391 25.9368 28.1391C26.378 28.1391 26.7587 28.2338 27.0788 28.4232C27.4008 28.6107 27.6489 28.874 27.8231 29.213C27.9974 29.5501 28.0845 29.944 28.0845 30.3948C28.0845 30.8418 27.9974 31.2348 27.8231 31.5738C27.6489 31.9109 27.4008 32.1742 27.0788 32.3635C26.7587 32.551 26.378 32.6448 25.9368 32.6448ZM25.9424 31.7073C26.1432 31.7073 26.3108 31.6505 26.4453 31.5368C26.5797 31.4213 26.6811 31.2641 26.7493 31.0653C26.8193 30.8664 26.8544 30.6401 26.8544 30.3863C26.8544 30.1325 26.8193 29.9062 26.7493 29.7073C26.6811 29.5084 26.5797 29.3512 26.4453 29.2357C26.3108 29.1202 26.1432 29.0624 25.9424 29.0624C25.7398 29.0624 25.5693 29.1202 25.4311 29.2357C25.2947 29.3512 25.1915 29.5084 25.1214 29.7073C25.0532 29.9062 25.0191 30.1325 25.0191 30.3863C25.0191 30.6401 25.0532 30.8664 25.1214 31.0653C25.1915 31.2641 25.2947 31.4213 25.4311 31.5368C25.5693 31.6505 25.7398 31.7073 25.9424 31.7073ZM28.5514 34.1959V28.1959H29.7446V28.9289H29.7986C29.8516 28.8115 29.9283 28.6921 30.0287 28.5709C30.131 28.4478 30.2635 28.3456 30.4264 28.2641C30.5912 28.1808 30.7957 28.1391 31.0401 28.1391C31.3582 28.1391 31.6518 28.2224 31.9207 28.3891C32.1897 28.5539 32.4046 28.8029 32.5656 29.1363C32.7266 29.4677 32.8071 29.8834 32.8071 30.3834C32.8071 30.8702 32.7285 31.2812 32.5713 31.6164C32.416 31.9497 32.2039 32.2026 31.9349 32.3749C31.6679 32.5454 31.3687 32.6306 31.0372 32.6306C30.8024 32.6306 30.6026 32.5918 30.4378 32.5141C30.2749 32.4365 30.1414 32.3389 30.0372 32.2215C29.933 32.1022 29.8535 31.9819 29.7986 31.8607H29.7616V34.1959H28.5514ZM29.7361 30.3778C29.7361 30.6372 29.7721 30.8635 29.844 31.0567C29.916 31.2499 30.0202 31.4005 30.1565 31.5084C30.2929 31.6145 30.4586 31.6675 30.6537 31.6675C30.8507 31.6675 31.0173 31.6135 31.1537 31.5056C31.2901 31.3957 31.3933 31.2442 31.4633 31.051C31.5353 30.856 31.5713 30.6315 31.5713 30.3778C31.5713 30.1259 31.5363 29.9043 31.4662 29.713C31.3961 29.5217 31.2929 29.3721 31.1565 29.2641C31.0202 29.1562 30.8526 29.1022 30.6537 29.1022C30.4567 29.1022 30.2901 29.1543 30.1537 29.2584C30.0192 29.3626 29.916 29.5103 29.844 29.7016C29.7721 29.8929 29.7361 30.1183 29.7361 30.3778Z" fill="black"/>
<circle cx="24.8492" cy="12.2229" r="1.99146" fill="black"/>
<path fill-rule="evenodd" clip-rule="evenodd" d="M24.7443 14.6484C23.7046 14.6484 22.834 15.4362 22.7304 16.4708L22.0229 23.5401C21.964 24.1288 22.4263 24.6396 23.0179 24.6396H23.5444C24.0967 24.6396 24.5444 24.1919 24.5444 23.6396V21.9517C24.5444 21.8412 24.6339 21.7517 24.7444 21.7517C24.8548 21.7517 24.9444 21.8412 24.9444 21.9517L24.9444 23.6396C24.9444 24.1919 25.3921 24.6396 25.9444 24.6396H26.4706C27.0623 24.6396 27.5246 24.1288 27.4657 23.5401L26.7581 16.4708C26.6546 15.4362 25.784 14.6484 24.7443 14.6484Z" fill="black"/>
<path d="M24.676 15.6679L24.6285 15.672C22.526 15.8532 20.7192 14.1955 20.7192 12.0852V12.0852" stroke="black" stroke-width="2" stroke-linecap="round"/>
</g>
<defs>
<clipPath id="clip0_251_2757">
<rect width="48" height="48" fill="white"/>
</clipPath>
<clipPath id="clip1_251_2757">
<rect width="26.7407" height="39.789" fill="white" transform="translate(11.4789 3.66504)"/>
</clipPath>
</defs>
</svg>
