<svg width="48" height="48" viewBox="0 0 48 48" fill="none" xmlns="http://www.w3.org/2000/svg">
<circle cx="24" cy="22" r="20.5" fill="#0059DF" stroke="#0059DF" stroke-width="3"/>
<path d="M23.6875 14.7401C25.8929 14.7401 27.6807 13.0074 27.6807 10.8701C27.6807 8.73269 25.8929 7 23.6875 7C21.4821 7 19.6943 8.73269 19.6943 10.8701C19.6943 13.0074 21.4821 14.7401 23.6875 14.7401Z" fill="white"/>
<path d="M21.2504 15.5975C17.1218 16.5449 14.0001 20.1413 14 24.4905C14 25.5638 14.8977 26.4338 16.0051 26.4338C17.1125 26.4339 18.0103 25.5638 18.0103 24.4905C18.0103 23.2279 18.4683 22.0757 19.2273 21.1744L18.0202 32.8631C17.9021 34.0072 18.829 35 20.0154 35H21.071C22.1785 35 23.0762 34.1299 23.0762 33.0567V29.7763C23.0762 29.5617 23.2557 29.3877 23.4772 29.3877C23.6987 29.3877 23.8783 29.5617 23.8783 29.7763V33.0567C23.8783 34.1299 24.776 35 25.8834 35H26.9387C28.125 35 29.052 34.0072 28.9339 32.8631L27.7204 21.1133C28.5107 22.0234 28.9897 23.1992 28.9897 24.4905C28.9897 25.5638 29.8875 26.4339 30.9949 26.4338C32.1023 26.4338 33 25.5638 33 24.4905C32.9999 20.1413 29.8782 16.5449 25.7496 15.5975C25.5587 15.5207 25.3522 15.4713 25.135 15.455L24.8085 15.4304C24.3802 15.3761 23.9433 15.3499 23.5 15.3538C23.0567 15.3499 22.6198 15.3761 22.1915 15.4304L21.865 15.455C21.6478 15.4713 21.4413 15.5207 21.2504 15.5975Z" fill="white"/>
<path d="M23.2575 46.9455L19.7566 40.4549L28.2199 41.066L25.0158 46.949C24.6361 47.6463 23.6344 47.6442 23.2575 46.9455Z" fill="#0059DF"/>
</svg>
