<svg width="48" height="48" viewBox="0 0 48 48" fill="none" xmlns="http://www.w3.org/2000/svg">
<circle cx="24" cy="24" r="20.5" fill="#FFD600" stroke="#242424" stroke-width="3"/>
<path d="M19.1995 33.5898L17.7645 33.6282C17.7496 33.5259 17.7091 33.4354 17.643 33.3565C17.577 33.2756 17.4907 33.2127 17.3842 33.168C17.2797 33.1211 17.1583 33.0977 17.0198 33.0977C16.8387 33.0977 16.6842 33.1339 16.5564 33.2063C16.4307 33.2788 16.3689 33.3768 16.371 33.5004C16.3689 33.5962 16.4072 33.6793 16.4861 33.7496C16.567 33.82 16.7109 33.8764 16.9175 33.919L17.8636 34.098C18.3536 34.1918 18.718 34.3473 18.9566 34.5646C19.1974 34.782 19.3188 35.0696 19.3209 35.4276C19.3188 35.7642 19.2187 36.0572 19.0205 36.3065C18.8245 36.5558 18.556 36.7496 18.2151 36.8881C17.8742 37.0245 17.4843 37.0927 17.0454 37.0927C16.3444 37.0927 15.7915 36.9489 15.3866 36.6612C14.9839 36.3714 14.7538 35.9837 14.6963 35.4979L16.24 35.4595C16.2741 35.6385 16.3625 35.7749 16.5052 35.8686C16.648 35.9624 16.8302 36.0092 17.0518 36.0092C17.252 36.0092 17.415 35.9719 17.5408 35.8974C17.6665 35.8228 17.7304 35.7237 17.7325 35.6001C17.7304 35.4893 17.6814 35.4009 17.5855 35.3349C17.4896 35.2667 17.3394 35.2134 17.1349 35.1751L16.2783 35.0121C15.7861 34.9226 15.4197 34.7575 15.1789 34.5167C14.9381 34.2738 14.8188 33.9648 14.8209 33.5898C14.8188 33.2617 14.9062 32.9815 15.083 32.7493C15.2599 32.5149 15.5113 32.3359 15.8373 32.2124C16.1633 32.0888 16.5479 32.027 16.991 32.027C17.6558 32.027 18.18 32.1665 18.5635 32.4457C18.947 32.7227 19.159 33.104 19.1995 33.5898ZM22.5013 32.0909V33.2415H19.4044V32.0909H22.5013ZM20.0532 30.9148H21.616V35.4563C21.616 35.5522 21.631 35.63 21.6608 35.6896C21.6927 35.7472 21.7386 35.7887 21.7982 35.8143C21.8579 35.8377 21.9292 35.8494 22.0123 35.8494C22.072 35.8494 22.1349 35.8441 22.2009 35.8335C22.2691 35.8207 22.3202 35.81 22.3543 35.8015L22.5908 36.9297C22.5163 36.951 22.4108 36.9776 22.2744 37.0096C22.1402 37.0415 21.9793 37.0618 21.7918 37.0703C21.4253 37.0874 21.1111 37.0447 20.849 36.9425C20.589 36.8381 20.3898 36.6761 20.2513 36.4567C20.115 36.2372 20.0489 35.9613 20.0532 35.6289V30.9148ZM24.3226 37.0831C24.0094 37.0831 23.7314 37.0309 23.4885 36.9265C23.2477 36.82 23.057 36.6602 22.9164 36.4471C22.7779 36.2319 22.7086 35.9624 22.7086 35.6385C22.7086 35.3658 22.7566 35.1357 22.8525 34.9482C22.9483 34.7607 23.0804 34.6083 23.2488 34.4911C23.4171 34.3739 23.611 34.2855 23.8304 34.2259C24.0499 34.1641 24.2843 34.1225 24.5336 34.1012C24.8127 34.0756 25.0375 34.049 25.2079 34.0213C25.3784 33.9915 25.502 33.9499 25.5787 33.8967C25.6575 33.8413 25.6969 33.7635 25.6969 33.6634V33.6474C25.6969 33.4833 25.6404 33.3565 25.5275 33.267C25.4146 33.1776 25.2623 33.1328 25.0705 33.1328C24.8638 33.1328 24.6976 33.1776 24.5719 33.267C24.4462 33.3565 24.3663 33.4801 24.3322 33.6378L22.8908 33.5866C22.9334 33.2884 23.0431 33.022 23.22 32.7876C23.399 32.5511 23.644 32.3658 23.9551 32.2315C24.2683 32.0952 24.6444 32.027 25.0833 32.027C25.3965 32.027 25.6852 32.0643 25.9494 32.1388C26.2136 32.2113 26.4437 32.3178 26.6397 32.4585C26.8358 32.5969 26.987 32.7674 27.0936 32.9698C27.2022 33.1722 27.2566 33.4034 27.2566 33.6634V37H25.7864V36.3161H25.748C25.6607 36.4822 25.5488 36.6229 25.4125 36.7379C25.2782 36.853 25.1195 36.9393 24.9363 36.9968C24.7551 37.0543 24.5506 37.0831 24.3226 37.0831ZM24.8052 36.0604C24.9735 36.0604 25.1248 36.0263 25.2591 35.9581C25.3954 35.8899 25.5041 35.7962 25.585 35.6768C25.666 35.5554 25.7065 35.4148 25.7065 35.255V34.7884C25.6618 34.8118 25.6074 34.8331 25.5435 34.8523C25.4817 34.8714 25.4135 34.8896 25.339 34.9066C25.2644 34.9237 25.1877 34.9386 25.1088 34.9513C25.03 34.9641 24.9544 34.9759 24.8819 34.9865C24.7349 35.0099 24.6092 35.0462 24.5048 35.0952C24.4025 35.1442 24.3237 35.2081 24.2683 35.2869C24.215 35.3636 24.1884 35.4553 24.1884 35.5618C24.1884 35.7237 24.2459 35.8473 24.361 35.9325C24.4782 36.0178 24.6262 36.0604 24.8052 36.0604ZM27.8522 37V32.0909H29.3703V32.9858H29.4214C29.5109 32.6619 29.6569 32.4212 29.8593 32.2635C30.0617 32.1037 30.2971 32.0238 30.5656 32.0238C30.638 32.0238 30.7126 32.0291 30.7893 32.0398C30.866 32.0483 30.9374 32.0621 31.0035 32.0813V33.4396C30.9289 33.4141 30.8309 33.3938 30.7094 33.3789C30.5901 33.364 30.4836 33.3565 30.3898 33.3565C30.2045 33.3565 30.0372 33.3981 29.888 33.4812C29.741 33.5621 29.6249 33.6761 29.5397 33.8232C29.4566 33.968 29.415 34.1385 29.415 34.3345V37H27.8522ZM34.2797 32.0909V33.2415H31.1828V32.0909H34.2797ZM31.8316 30.9148H33.3944V35.4563C33.3944 35.5522 33.4093 35.63 33.4392 35.6896C33.4711 35.7472 33.5169 35.7887 33.5766 35.8143C33.6363 35.8377 33.7076 35.8494 33.7907 35.8494C33.8504 35.8494 33.9133 35.8441 33.9793 35.8335C34.0475 35.8207 34.0986 35.81 34.1327 35.8015L34.3692 36.9297C34.2946 36.951 34.1892 36.9776 34.0528 37.0096C33.9186 37.0415 33.7577 37.0618 33.5702 37.0703C33.2037 37.0874 32.8895 37.0447 32.6274 36.9425C32.3674 36.8381 32.1682 36.6761 32.0297 36.4567C31.8934 36.2372 31.8273 35.9613 31.8316 35.6289V30.9148Z" fill="#242424"/>
<path d="M4.40024 42.1989L6 35L12 41L5.72755 43.3522C4.98418 43.6309 4.22802 42.9739 4.40024 42.1989Z" fill="#242424"/>
<path d="M15.7065 13.487C15.7065 11.8052 16.8215 10.3271 18.4387 9.86511V9.86511C22.0736 8.82672 25.9266 8.82672 29.5615 9.86511V9.86511C31.1786 10.3271 32.2936 11.8052 32.2936 13.487V23.7377C32.2936 25.3142 32.2936 26.1024 31.8739 26.6435C31.7711 26.776 31.652 26.8951 31.5194 26.998C30.9783 27.4177 30.1901 27.4177 28.6136 27.4177H19.3865C17.81 27.4177 17.0218 27.4177 16.4807 26.998C16.3482 26.8951 16.2291 26.776 16.1262 26.6435C15.7065 26.1024 15.7065 25.3142 15.7065 23.7377V13.487Z" fill="#242424"/>
<path d="M17.4712 15.9155C17.4712 15.3632 17.9189 14.9155 18.4712 14.9155H29.641C30.1933 14.9155 30.641 15.3632 30.641 15.9155V20.1344C30.641 20.637 30.2679 21.0616 29.7694 21.1261L26.7522 21.5167C24.9623 21.7484 23.1499 21.7484 21.36 21.5167L18.3428 21.1261C17.8443 21.0616 17.4712 20.637 17.4712 20.1344V15.9155Z" fill="white"/>
<rect x="27.0935" y="25.0728" width="3.54749" height="4.73881" rx="1" fill="#242424"/>
<rect x="17.3513" y="25.0728" width="3.54749" height="4.73881" rx="1" fill="#242424"/>
<rect x="19.7656" y="23.3062" width="1.85666" height="2.29438" rx="0.928332" transform="rotate(90 19.7656 23.3062)" fill="white"/>
<rect x="30.641" y="23.3062" width="1.85666" height="2.29438" rx="0.928332" transform="rotate(90 30.641 23.3062)" fill="white"/>
<rect opacity="0.5" x="21.1427" y="12.3628" width="5.96375" height="1.55273" rx="0.776367" fill="white"/>
</svg>
