<svg width="44" height="52" viewBox="0 0 44 52" fill="none" xmlns="http://www.w3.org/2000/svg">
<mask id="path-1-inside-1_282_1741" fill="white">
<path fill-rule="evenodd" clip-rule="evenodd" d="M26.4068 44.0214C36.4453 41.9804 44 33.1039 44 22.4629C44 10.3126 34.1503 0.462891 22 0.462891C9.84974 0.462891 0 10.3126 0 22.4629C0 33.5527 8.20544 42.726 18.8762 44.2428L22.8715 51.0918L26.4068 44.0214Z"/>
</mask>
<path fill-rule="evenodd" clip-rule="evenodd" d="M26.4068 44.0214C36.4453 41.9804 44 33.1039 44 22.4629C44 10.3126 34.1503 0.462891 22 0.462891C9.84974 0.462891 0 10.3126 0 22.4629C0 33.5527 8.20544 42.726 18.8762 44.2428L22.8715 51.0918L26.4068 44.0214Z" fill="white"/>
<path d="M26.4068 44.0214L26.0083 42.0615L25.0536 42.2556L24.6179 43.127L26.4068 44.0214ZM18.8762 44.2428L20.6038 43.2351L20.1161 42.3989L19.1577 42.2627L18.8762 44.2428ZM22.8715 51.0918L21.1439 52.0996L23.0069 55.2932L24.6604 51.9863L22.8715 51.0918ZM42 22.4629C42 32.1342 35.1334 40.2062 26.0083 42.0615L26.8053 45.9813C37.7572 43.7546 46 34.0736 46 22.4629H42ZM22 2.46289C33.0457 2.46289 42 11.4172 42 22.4629H46C46 9.20806 35.2548 -1.53711 22 -1.53711V2.46289ZM2 22.4629C2 11.4172 10.9543 2.46289 22 2.46289V-1.53711C8.74517 -1.53711 -2 9.20806 -2 22.4629H2ZM19.1577 42.2627C9.45885 40.8841 2 32.5428 2 22.4629H-2C-2 34.5626 6.95203 44.568 18.5948 46.2229L19.1577 42.2627ZM24.5991 50.0841L20.6038 43.2351L17.1487 45.2506L21.1439 52.0996L24.5991 50.0841ZM24.6179 43.127L21.0827 50.1974L24.6604 51.9863L28.1956 44.9159L24.6179 43.127Z" fill="#333333" mask="url(#path-1-inside-1_282_1741)"/>
<path fill-rule="evenodd" clip-rule="evenodd" d="M17.6456 25.9436C17.6673 25.7268 17.4983 25.5403 17.2867 25.4881C16.7214 25.3484 16.2291 24.9483 15.9952 24.3668L15.9481 24.2496C14.2509 20.0294 17.4839 15.484 22 15.6711C26.5161 15.484 29.7492 20.0294 28.052 24.2496L28.0049 24.3668C27.792 24.8961 27.3649 25.2752 26.8635 25.4443C26.6718 25.5089 26.5265 25.6864 26.5466 25.8878L27.1503 31.919C27.2884 33.2989 26.2048 34.4963 24.818 34.4963C23.5235 34.4963 22.4741 33.4469 22.4741 32.1524L22.4741 25.9567C22.4741 25.7495 22.3062 25.5816 22.0991 25.5816C21.892 25.5816 21.7241 25.7495 21.7241 25.9567L21.7241 32.1521C21.7241 33.4468 20.6745 34.4963 19.3798 34.4963C17.993 34.4963 16.9095 33.2989 17.0476 31.919L17.6456 25.9436Z" fill="#333333"/>
<circle cx="22.1584" cy="11.1506" r="3.28146" fill="#333333"/>
<g style="mix-blend-mode:multiply">
<path d="M29 34.4629C29 35.5675 27.1852 36.4629 22 36.4629C16.8148 36.4629 15 35.5675 15 34.4629C15 33.3583 16.8148 32.4629 22 32.4629C27.1852 32.4629 29 33.3583 29 34.4629Z" fill="#D9D9D9"/>
</g>
</svg>
