<svg width="44" height="46" viewBox="0 0 44 46" fill="none" xmlns="http://www.w3.org/2000/svg">
<rect x="6" y="1.71387" width="32" height="32" rx="16" fill="#FFD600" stroke="#242424" stroke-width="2"/>
<path d="M21 44.7139C21 45.2662 21.4477 45.7139 22 45.7139C22.5523 45.7139 23 45.2662 23 44.7139L21 44.7139ZM21 33.2837L21 44.7139L23 44.7139L23 33.2837L21 33.2837Z" fill="#242424"/>
<path d="M27 25.9629C27 26.5152 25.8333 26.9629 22.5 26.9629C19.1667 26.9629 18 26.5152 18 25.9629C18 25.4106 19.1667 24.9629 22.5 24.9629C25.8333 24.9629 27 25.4106 27 25.9629Z" fill="black" fill-opacity="0.2"/>
<path d="M22.7449 15.7515L21.5248 15.6293C19.5236 15.4287 17.9998 13.7446 17.9998 11.7334V11.7334" stroke="#333333" stroke-width="2.25" stroke-linecap="round"/>
<path fill-rule="evenodd" clip-rule="evenodd" d="M22.6896 14.6289C21.5199 14.6289 20.5405 15.5152 20.424 16.679L19.659 24.3227C19.5761 25.1506 20.2262 25.869 21.0582 25.869C21.7729 25.869 22.3522 25.2897 22.3522 24.5751L22.3522 20.7455C22.3522 20.5591 22.5033 20.408 22.6897 20.408C22.8761 20.408 23.0272 20.5591 23.0272 20.7455L23.0272 24.5753C23.0272 25.2898 23.6064 25.869 24.321 25.869C25.153 25.869 25.8031 25.1506 25.7202 24.3227L24.9552 16.679C24.8387 15.5152 23.8593 14.6289 22.6896 14.6289Z" fill="#333333"/>
<circle cx="22.9818" cy="11.7906" r="1.95172" fill="#333333"/>
</svg>
