<svg width="160" height="160" viewBox="0 0 160 160" fill="none" xmlns="http://www.w3.org/2000/svg">
<g style="mix-blend-mode:multiply">
<line x1="50.5022" y1="118.908" x2="108.349" y2="118.908" stroke="#B3B3B3" stroke-width="13.3611" stroke-linecap="round"/>
</g>
<rect x="38.0791" y="102.866" width="14.2912" height="22.866" rx="3.81099" fill="#333333"/>
<rect x="107.63" y="102.866" width="14.2912" height="22.866" rx="3.81099" fill="#333333"/>
<mask id="path-4-outside-1_331_747" maskUnits="userSpaceOnUse" x="30.1736" y="28.2681" width="100" height="92" fill="black">
<rect fill="white" x="30.1736" y="28.2681" width="100" height="92"/>
<path fill-rule="evenodd" clip-rule="evenodd" d="M45.7674 34.2681C42.5736 34.2681 39.9846 36.8571 39.9846 40.0508V47.6065C39.9846 48.6589 39.1315 49.512 38.0791 49.512V49.512C37.0267 49.512 36.1736 50.3652 36.1736 51.4175V59.0395C36.1736 60.0919 37.0267 60.945 38.0791 60.945V60.945C39.1315 60.945 39.9846 61.7981 39.9846 62.8505V100.806C39.9846 108.258 46.0256 114.299 53.4777 114.299H106.522C113.974 114.299 120.015 108.258 120.015 100.806V62.8505C120.015 61.7981 120.869 60.945 121.921 60.945V60.945C122.973 60.945 123.826 60.0919 123.826 59.0395V51.4175C123.826 50.3652 122.973 49.512 121.921 49.512V49.512C120.869 49.512 120.015 48.6589 120.015 47.6066V40.0508C120.015 36.8571 117.426 34.2681 114.233 34.2681H45.7674Z"/>
</mask>
<path fill-rule="evenodd" clip-rule="evenodd" d="M45.7674 34.2681C42.5736 34.2681 39.9846 36.8571 39.9846 40.0508V47.6065C39.9846 48.6589 39.1315 49.512 38.0791 49.512V49.512C37.0267 49.512 36.1736 50.3652 36.1736 51.4175V59.0395C36.1736 60.0919 37.0267 60.945 38.0791 60.945V60.945C39.1315 60.945 39.9846 61.7981 39.9846 62.8505V100.806C39.9846 108.258 46.0256 114.299 53.4777 114.299H106.522C113.974 114.299 120.015 108.258 120.015 100.806V62.8505C120.015 61.7981 120.869 60.945 121.921 60.945V60.945C122.973 60.945 123.826 60.0919 123.826 59.0395V51.4175C123.826 50.3652 122.973 49.512 121.921 49.512V49.512C120.869 49.512 120.015 48.6589 120.015 47.6066V40.0508C120.015 36.8571 117.426 34.2681 114.233 34.2681H45.7674Z" fill="#FFD600"/>
<path d="M45.7674 40.0508L45.7674 40.0508V28.4853C39.3799 28.4853 34.2018 33.6634 34.2018 40.0508H45.7674ZM45.7674 47.6065V40.0508H34.2018V47.6065H45.7674ZM38.0791 43.7293C33.833 43.7293 30.3908 47.1714 30.3908 51.4175H41.9564C41.9564 53.5589 40.2204 55.2948 38.0791 55.2948V43.7293ZM30.3908 51.4175V59.0395H41.9564V51.4175H30.3908ZM30.3908 59.0395C30.3908 63.2856 33.833 66.7278 38.0791 66.7278V55.1622C40.2204 55.1622 41.9564 56.8981 41.9564 59.0395H30.3908ZM45.7674 100.806V62.8505H34.2018V100.806H45.7674ZM53.4777 108.516C49.2194 108.516 45.7674 105.064 45.7674 100.806H34.2018C34.2018 111.452 42.8319 120.082 53.4777 120.082V108.516ZM106.522 108.516H53.4777V120.082H106.522V108.516ZM114.233 100.806C114.233 105.064 110.781 108.516 106.522 108.516V120.082C117.168 120.082 125.798 111.452 125.798 100.806H114.233ZM114.233 62.8505V100.806H125.798V62.8505H114.233ZM118.044 59.0395C118.044 56.8982 119.78 55.1622 121.921 55.1622V66.7278C126.167 66.7278 129.609 63.2856 129.609 59.0395H118.044ZM118.044 51.4175V59.0395H129.609V51.4175H118.044ZM121.921 55.2948C119.78 55.2948 118.044 53.5589 118.044 51.4175H129.609C129.609 47.1714 126.167 43.7293 121.921 43.7293V55.2948ZM114.233 40.0508V47.6066H125.798V40.0508H114.233ZM114.233 40.0508L114.233 40.0508H125.798C125.798 33.6634 120.62 28.4853 114.233 28.4853V40.0508ZM45.7674 40.0508H114.233V28.4853H45.7674V40.0508ZM121.921 43.7293C124.062 43.7293 125.798 45.4652 125.798 47.6066H114.233C114.233 51.8527 117.675 55.2948 121.921 55.2948V43.7293ZM125.798 62.8505C125.798 64.9919 124.062 66.7278 121.921 66.7278V55.1622C117.675 55.1622 114.233 58.6044 114.233 62.8505H125.798ZM38.0791 66.7278C35.9377 66.7278 34.2018 64.9919 34.2018 62.8505H45.7674C45.7674 58.6044 42.3252 55.1622 38.0791 55.1622V66.7278ZM34.2018 47.6065C34.2018 45.4652 35.9377 43.7293 38.0791 43.7293V55.2948C42.3252 55.2948 45.7674 51.8527 45.7674 47.6065H34.2018Z" fill="#333333" mask="url(#path-4-outside-1_331_747)"/>
<path d="M43.7957 47.5074C43.7957 43.2259 43.7957 41.0852 44.8735 39.5768C45.244 39.0583 45.6977 38.6046 46.2162 38.2341C47.7246 37.1562 49.8653 37.1562 54.1468 37.1562H105.853C110.135 37.1562 112.276 37.1562 113.784 38.2341C114.302 38.6046 114.756 39.0583 115.127 39.5768C116.205 41.0852 116.205 43.2259 116.205 47.5074V72.5998C116.205 75.4541 116.205 76.8813 115.486 77.8868C115.239 78.2325 114.937 78.535 114.591 78.782C113.585 79.5006 112.158 79.5006 109.304 79.5006H50.6964C47.8421 79.5006 46.4149 79.5006 45.4094 78.782C45.0637 78.535 44.7612 78.2325 44.5142 77.8868C43.7957 76.8813 43.7957 75.4541 43.7957 72.5998V47.5074Z" fill="#333333"/>
<path d="M43.7957 53.9966H116.205V86.0662C116.205 90.7354 116.205 93.0701 114.935 94.655C114.67 94.9861 114.369 95.2871 114.037 95.5524C112.453 96.8221 110.118 96.8221 105.449 96.8221H54.5516C49.8823 96.8221 47.5477 96.8221 45.9628 95.5524C45.6316 95.2871 45.3307 94.9861 45.0654 94.655C43.7957 93.0701 43.7957 90.7354 43.7957 86.0661V53.9966Z" fill="#333333"/>
<rect x="102.866" y="100.96" width="11.433" height="6.66924" rx="3.33462" fill="#333333"/>
<rect x="45.701" y="100.96" width="11.433" height="6.66924" rx="3.33462" fill="#333333"/>
</svg>
