<svg width="44" height="45" viewBox="0 0 44 45" fill="none" xmlns="http://www.w3.org/2000/svg">
<circle cx="22" cy="22.4629" r="21" fill="white" stroke="#242424" stroke-width="2"/>
<g style="mix-blend-mode:multiply">
<line x1="14.2598" y1="32.6723" x2="29.4388" y2="32.6723" stroke="#B3B3B3" stroke-width="3.50594" stroke-linecap="round"/>
</g>
<rect x="11" y="28.4629" width="3.75" height="6" rx="1" fill="#333333"/>
<rect x="29.25" y="28.4629" width="3.75" height="6" rx="1" fill="#333333"/>
<mask id="path-5-outside-1_282_1585" maskUnits="userSpaceOnUse" x="8.5" y="8.46289" width="27" height="25" fill="black">
<rect fill="white" x="8.5" y="8.46289" width="27" height="25"/>
<path fill-rule="evenodd" clip-rule="evenodd" d="M13.0174 10.4629C12.1794 10.4629 11.5 11.1423 11.5 11.9803V13.9629C11.5 14.239 11.2761 14.4629 11 14.4629C10.7239 14.4629 10.5 14.6867 10.5 14.9629V16.9629C10.5 17.239 10.7239 17.4629 11 17.4629C11.2761 17.4629 11.5 17.6867 11.5 17.9629V27.9223C11.5 29.8777 13.0852 31.4629 15.0406 31.4629H28.9594C30.9148 31.4629 32.5 29.8777 32.5 27.9223V17.9629C32.5 17.6867 32.7239 17.4629 33 17.4629C33.2761 17.4629 33.5 17.239 33.5 16.9629V14.9629C33.5 14.6867 33.2761 14.4629 33 14.4629C32.7239 14.4629 32.5 14.239 32.5 13.9629V11.9803C32.5 11.1423 31.8207 10.4629 30.9826 10.4629H13.0174Z"/>
</mask>
<path fill-rule="evenodd" clip-rule="evenodd" d="M13.0174 10.4629C12.1794 10.4629 11.5 11.1423 11.5 11.9803V13.9629C11.5 14.239 11.2761 14.4629 11 14.4629C10.7239 14.4629 10.5 14.6867 10.5 14.9629V16.9629C10.5 17.239 10.7239 17.4629 11 17.4629C11.2761 17.4629 11.5 17.6867 11.5 17.9629V27.9223C11.5 29.8777 13.0852 31.4629 15.0406 31.4629H28.9594C30.9148 31.4629 32.5 29.8777 32.5 27.9223V17.9629C32.5 17.6867 32.7239 17.4629 33 17.4629C33.2761 17.4629 33.5 17.239 33.5 16.9629V14.9629C33.5 14.6867 33.2761 14.4629 33 14.4629C32.7239 14.4629 32.5 14.239 32.5 13.9629V11.9803C32.5 11.1423 31.8207 10.4629 30.9826 10.4629H13.0174Z" fill="#FFD600"/>
<path d="M13.0174 11.9803V11.9803V8.9455C11.3413 8.9455 9.98261 10.3042 9.98261 11.9803H13.0174ZM13.0174 13.9629V11.9803H9.98261V13.9629H13.0174ZM11 12.9455C9.88582 12.9455 8.98261 13.8487 8.98261 14.9629H12.0174C12.0174 15.5248 11.5619 15.9803 11 15.9803V12.9455ZM8.98261 14.9629V16.9629H12.0174V14.9629H8.98261ZM8.98261 16.9629C8.98261 18.0771 9.88582 18.9803 11 18.9803V15.9455C11.5619 15.9455 12.0174 16.401 12.0174 16.9629H8.98261ZM13.0174 27.9223V17.9629H9.98261V27.9223H13.0174ZM15.0406 29.9455C13.9232 29.9455 13.0174 29.0397 13.0174 27.9223H9.98261C9.98261 30.7157 12.2471 32.9803 15.0406 32.9803V29.9455ZM28.9594 29.9455H15.0406V32.9803H28.9594V29.9455ZM30.9826 27.9223C30.9826 29.0397 30.0768 29.9455 28.9594 29.9455V32.9803C31.7529 32.9803 34.0174 30.7158 34.0174 27.9223H30.9826ZM30.9826 17.9629V27.9223H34.0174V17.9629H30.9826ZM31.9826 16.9629C31.9826 16.401 32.4381 15.9455 33 15.9455V18.9803C34.1142 18.9803 35.0174 18.0771 35.0174 16.9629H31.9826ZM31.9826 14.9629V16.9629H35.0174V14.9629H31.9826ZM33 15.9803C32.4381 15.9803 31.9826 15.5248 31.9826 14.9629H35.0174C35.0174 13.8487 34.1142 12.9455 33 12.9455V15.9803ZM30.9826 11.9803V13.9629H34.0174V11.9803H30.9826ZM30.9826 11.9803L30.9826 11.9803H34.0174C34.0174 10.3042 32.6587 8.9455 30.9826 8.9455V11.9803ZM13.0174 11.9803H30.9826V8.9455H13.0174V11.9803ZM33 12.9455C33.5619 12.9455 34.0174 13.401 34.0174 13.9629H30.9826C30.9826 15.0771 31.8858 15.9803 33 15.9803V12.9455ZM34.0174 17.9629C34.0174 18.5248 33.5619 18.9803 33 18.9803V15.9455C31.8858 15.9455 30.9826 16.8487 30.9826 17.9629H34.0174ZM11 18.9803C10.4381 18.9803 9.98261 18.5248 9.98261 17.9629H13.0174C13.0174 16.8487 12.1142 15.9455 11 15.9455V18.9803ZM9.98261 13.9629C9.98261 13.401 10.4381 12.9455 11 12.9455V15.9803C12.1142 15.9803 13.0174 15.0771 13.0174 13.9629H9.98261Z" fill="#333333" mask="url(#path-5-outside-1_282_1585)"/>
<path d="M12.5 13.9368C12.5 12.8134 12.5 12.2516 12.7828 11.8559C12.8801 11.7198 12.9991 11.6008 13.1352 11.5035C13.5309 11.2207 14.0927 11.2207 15.2161 11.2207H28.7839C29.9073 11.2207 30.4691 11.2207 30.8649 11.5035C31.0009 11.6008 31.12 11.7198 31.2172 11.8559C31.5 12.2516 31.5 12.8134 31.5 13.9368V20.5211C31.5 21.27 31.5 21.6445 31.3115 21.9084C31.2466 21.9991 31.1673 22.0784 31.0766 22.1433C30.8127 22.3318 30.4382 22.3318 29.6893 22.3318H14.3108C13.5618 22.3318 13.1873 22.3318 12.9234 22.1433C12.8327 22.0784 12.7534 21.9991 12.6886 21.9084C12.5 21.6445 12.5 21.27 12.5 20.521V13.9368Z" fill="#333333"/>
<path d="M12.5 15.6396H31.5V24.0547C31.5 25.2799 31.5 25.8925 31.1668 26.3084C31.0972 26.3953 31.0183 26.4742 30.9314 26.5438C30.5155 26.877 29.9029 26.877 28.6777 26.877H15.3224C14.0971 26.877 13.4845 26.877 13.0687 26.5438C12.9818 26.4742 12.9028 26.3953 12.8332 26.3084C12.5 25.8925 12.5 25.2799 12.5 24.0547V15.6396Z" fill="#333333"/>
<rect x="28" y="27.9629" width="3" height="1.75" rx="0.875" fill="#333333"/>
<rect x="13" y="27.9629" width="3" height="1.75" rx="0.875" fill="#333333"/>
</svg>
