<svg width="48" height="48" viewBox="0 0 48 48" fill="none" xmlns="http://www.w3.org/2000/svg">
<path d="M24.0005 36.5896L24.0005 44.8201" stroke="#242424" stroke-width="6" stroke-linecap="round"/>
<rect x="8.26758" y="1.52441" width="31.4651" height="37.4407" rx="8" fill="white" stroke="black" stroke-width="2"/>
<path d="M19.1389 29.1372L18.2014 29.2395C18.1749 29.1448 18.1285 29.0557 18.0622 28.9724C17.9978 28.8891 17.9107 28.8218 17.8008 28.7707C17.691 28.7196 17.5565 28.694 17.3974 28.694C17.1834 28.694 17.0035 28.7404 16.8576 28.8332C16.7137 28.926 16.6427 29.0463 16.6446 29.194C16.6427 29.3209 16.6891 29.4241 16.7838 29.5037C16.8804 29.5832 17.0395 29.6485 17.2611 29.6997L18.0054 29.8588C18.4182 29.9478 18.7251 30.0889 18.9258 30.2821C19.1285 30.4753 19.2308 30.7281 19.2326 31.0406C19.2308 31.3152 19.1503 31.5576 18.9912 31.7679C18.834 31.9762 18.6152 32.1391 18.3349 32.2565C18.0546 32.3739 17.7326 32.4326 17.369 32.4326C16.8349 32.4326 16.405 32.3209 16.0792 32.0974C15.7535 31.872 15.5593 31.5586 15.4968 31.1571L16.4997 31.0605C16.5451 31.2574 16.6417 31.4061 16.7895 31.5065C16.9372 31.6069 17.1294 31.6571 17.3662 31.6571C17.6105 31.6571 17.8065 31.6069 17.9542 31.5065C18.1039 31.4061 18.1787 31.2821 18.1787 31.1343C18.1787 31.0093 18.1304 30.9061 18.0338 30.8247C17.9391 30.7432 17.7914 30.6807 17.5906 30.6372L16.8463 30.4809C16.4277 30.3938 16.1181 30.247 15.9173 30.0406C15.7165 29.8323 15.6171 29.569 15.619 29.2508C15.6171 28.9819 15.69 28.7489 15.8378 28.552C15.9874 28.3531 16.1948 28.1997 16.4599 28.0917C16.727 27.9819 17.0347 27.927 17.3832 27.927C17.8946 27.927 18.297 28.0359 18.5906 28.2537C18.8861 28.4715 19.0688 28.766 19.1389 29.1372ZM22.2596 27.9838V28.7792H19.7511V27.9838H22.2596ZM20.3704 26.9383H21.3988V31.0349C21.3988 31.1732 21.4197 31.2792 21.4613 31.3531C21.5049 31.4251 21.5617 31.4743 21.6318 31.5008C21.7019 31.5273 21.7795 31.5406 21.8647 31.5406C21.9291 31.5406 21.9879 31.5359 22.0409 31.5264C22.0958 31.5169 22.1375 31.5084 22.1659 31.5008L22.3392 32.3048C22.2843 32.3237 22.2057 32.3446 22.1034 32.3673C22.003 32.39 21.8799 32.4033 21.7341 32.4071C21.4765 32.4146 21.2445 32.3758 21.038 32.2906C20.8316 32.2035 20.6678 32.069 20.5466 31.8872C20.4272 31.7054 20.3685 31.4781 20.3704 31.2054V26.9383ZM24.9763 32.4326C24.5501 32.4326 24.1808 32.3389 23.8683 32.1514C23.5558 31.9639 23.3134 31.7016 23.141 31.3645C22.9706 31.0273 22.8853 30.6334 22.8853 30.1826C22.8853 29.7319 22.9706 29.337 23.141 28.998C23.3134 28.659 23.5558 28.3957 23.8683 28.2082C24.1808 28.0207 24.5501 27.927 24.9763 27.927C25.4024 27.927 25.7717 28.0207 26.0842 28.2082C26.3967 28.3957 26.6382 28.659 26.8086 28.998C26.981 29.337 27.0672 29.7319 27.0672 30.1826C27.0672 30.6334 26.981 31.0273 26.8086 31.3645C26.6382 31.7016 26.3967 31.9639 26.0842 32.1514C25.7717 32.3389 25.4024 32.4326 24.9763 32.4326ZM24.9819 31.6088C25.213 31.6088 25.4062 31.5453 25.5615 31.4184C25.7168 31.2896 25.8323 31.1173 25.9081 30.9014C25.9857 30.6855 26.0245 30.4449 26.0245 30.1798C26.0245 29.9128 25.9857 29.6713 25.9081 29.4554C25.8323 29.2376 25.7168 29.0643 25.5615 28.9355C25.4062 28.8067 25.213 28.7423 24.9819 28.7423C24.7452 28.7423 24.5482 28.8067 24.391 28.9355C24.2357 29.0643 24.1192 29.2376 24.0416 29.4554C23.9658 29.6713 23.928 29.9128 23.928 30.1798C23.928 30.4449 23.9658 30.6855 24.0416 30.9014C24.1192 31.1173 24.2357 31.2896 24.391 31.4184C24.5482 31.5453 24.7452 31.6088 24.9819 31.6088ZM27.94 33.9838V27.9838H28.9514V28.7054H29.0111C29.0641 28.5993 29.1389 28.4866 29.2355 28.3673C29.3321 28.2461 29.4628 28.1429 29.6275 28.0576C29.7923 27.9705 30.0025 27.927 30.2582 27.927C30.5953 27.927 30.8993 28.0131 31.1701 28.1855C31.4429 28.3559 31.6588 28.6088 31.8179 28.944C31.9789 29.2773 32.0593 29.6864 32.0593 30.1713C32.0593 30.6504 31.9808 31.0576 31.8236 31.3929C31.6664 31.7281 31.4523 31.9838 31.1815 32.1599C30.9107 32.336 30.6039 32.4241 30.2611 32.4241C30.0111 32.4241 29.8037 32.3824 29.6389 32.2991C29.4741 32.2158 29.3415 32.1154 29.2412 31.998C29.1427 31.8787 29.066 31.766 29.0111 31.6599H28.9684V33.9838H27.94ZM28.9486 30.1656C28.9486 30.4478 28.9883 30.6949 29.0679 30.9071C29.1493 31.1192 29.2658 31.2849 29.4173 31.4042C29.5707 31.5217 29.7563 31.5804 29.9741 31.5804C30.2014 31.5804 30.3917 31.5198 30.5451 31.3985C30.6986 31.2754 30.8141 31.1078 30.8917 30.8957C30.9713 30.6817 31.0111 30.4383 31.0111 30.1656C31.0111 29.8948 30.9722 29.6542 30.8946 29.444C30.8169 29.2338 30.7014 29.069 30.548 28.9497C30.3946 28.8304 30.2033 28.7707 29.9741 28.7707C29.7544 28.7707 29.5679 28.8285 29.4145 28.944C29.2611 29.0595 29.1446 29.2215 29.065 29.4298C28.9874 29.6381 28.9486 29.8834 28.9486 30.1656Z" fill="black"/>
<path d="M20.1709 18.5547V10.1579C20.1709 8.36671 22.0313 7.1819 23.6544 7.93935L27.9709 9.95371C29.7998 10.8072 29.8684 13.3826 28.0877 14.3324L20.1709 18.5547Z" fill="#FFD600"/>
<path d="M20.1709 24.5107V10.1579C20.1709 8.36671 22.0313 7.1819 23.6544 7.93935L28.1284 10.0272C29.9276 10.8668 30.0316 13.3863 28.3077 14.3714L20.987 18.5547" stroke="#242424" stroke-width="2.44819" stroke-linecap="round"/>
</svg>
